<svg width="64" height="64" viewBox="0 0 64 64" fill="none" xmlns="http://www.w3.org/2000/svg">
<g clip-path="url(#clip0_2_123)">
<path fill-rule="evenodd" clip-rule="evenodd" d="M19.1835 38.4677C18.9418 38.332 18.6987 38.1968 18.4545 38.0633C15.9665 36.7058 13.4933 35.342 11.1044 33.8104C10.5257 33.4396 9.43073 32.7126 8.45778 32.4494C7.76192 32.2612 7.10042 32.283 6.55162 32.5098C6.2019 32.6542 5.72206 32.9803 5.64461 33.7467C5.63152 33.8756 5.63279 34.0907 5.68121 34.3523C5.75989 34.7754 5.9941 35.5091 6.03246 35.6091C6.58545 37.0671 7.12061 38.4594 7.79161 39.8682C8.40888 41.1647 8.95068 42.4929 9.58627 43.7822C10.5372 45.7111 11.5821 47.5327 12.8563 49.2696C13.3292 49.9146 14.237 50.0536 14.8819 49.5807C15.5262 49.108 15.6661 48.2008 15.1932 47.5558C14.02 45.9559 13.0612 44.2776 12.1861 42.5007C11.556 41.2235 11.0195 39.9066 10.4077 38.6221C10.0099 37.7864 9.66325 36.9563 9.33126 36.1139L9.54012 36.2502C11.987 37.8186 14.5184 39.2169 17.0663 40.607C18.0197 41.1277 18.953 41.6764 19.9151 42.182C20.002 42.256 20.4024 42.5948 20.5823 42.6992C20.8817 42.8732 21.1716 42.9372 21.4104 42.9431C22.0174 42.9586 22.5705 42.7419 22.8977 41.9775C23.1427 41.4052 23.1592 40.6162 22.9064 39.7478C22.5596 38.5545 21.6757 37.0968 21.3816 36.3944C19.5204 31.9497 17.2865 27.6256 15.7627 23.0467C15.5104 22.2878 14.6895 21.8768 13.9307 22.1291C13.172 22.3821 12.7602 23.2031 13.0132 23.9618C14.5595 28.6097 16.8187 33.002 18.708 37.5141C18.8091 37.754 18.9849 38.0869 19.1835 38.4677Z" fill="black"/>
<path fill-rule="evenodd" clip-rule="evenodd" d="M26.222 16.0433C24.75 16.8936 23.2606 17.6908 22.2819 19.1257C21.2583 20.6277 21.0299 22.468 21.2892 24.3795C21.6201 26.8181 22.7571 29.3782 23.5294 31.213C23.9296 32.1629 24.3588 33.5217 24.9763 34.6612C25.5077 35.6409 26.1836 36.4643 27.0043 36.9467C28.2937 37.7043 29.8716 37.3883 31.2866 36.314C32.9214 35.0728 34.2849 32.8616 34.511 31.7269C34.6677 30.9427 34.158 30.1786 33.3733 30.0228C32.5891 29.866 31.8257 30.3755 31.669 31.1597C31.5256 31.8795 30.5712 33.2185 29.5341 34.0064C29.3025 34.1818 29.0663 34.3299 28.8283 34.4155C28.7046 34.4603 28.5829 34.5128 28.4732 34.4487C27.9346 34.1316 27.5962 33.4704 27.2817 32.7952C26.8427 31.8543 26.5154 30.8357 26.2008 30.0878C25.5097 28.4472 24.457 26.1705 24.1608 23.9898C24.0021 22.8204 24.0503 21.6776 24.6771 20.7584C25.4044 19.6919 26.5763 19.1857 27.6713 18.5533C28.3639 18.1538 28.6016 17.2666 28.2014 16.5741C27.8019 15.8814 26.9147 15.6438 26.222 16.0433Z" fill="black"/>
<path fill-rule="evenodd" clip-rule="evenodd" d="M28.1134 23.4419C27.0662 24.4442 25.9395 25.4883 24.7509 26.3181C24.0951 26.7759 23.934 27.6799 24.3912 28.3359C24.849 28.9917 25.7529 29.1528 26.4088 28.6949C27.718 27.7814 28.9646 26.6394 30.1173 25.5364C30.6948 24.9835 30.7153 24.0651 30.1624 23.4876C29.6092 22.9094 28.6917 22.8894 28.1134 23.4419Z" fill="black"/>
<path fill-rule="evenodd" clip-rule="evenodd" d="M45.2054 19.6045C43.8496 18.6464 42.4411 17.7236 41.0001 16.9222C40.8827 16.8572 39.4764 16.2221 38.6972 16.0535C38.1717 15.94 37.7516 16.0074 37.5187 16.0953C36.8411 16.3511 36.5188 16.8431 36.5195 17.535C36.5207 18.1983 36.6352 18.8587 36.8134 19.516C35.2534 17.8573 33.7665 16.1195 32.6223 14.1754C32.5278 14.0149 32.4673 13.9442 32.457 13.9312C32.1473 13.5558 31.833 13.4848 31.7196 13.454C31.1619 13.3019 30.7412 13.4671 30.42 13.7306C30.3806 13.7623 29.5133 14.4674 30.0521 15.5216C30.0955 15.6067 30.4306 16.2057 30.5455 16.4441C30.6459 16.6511 30.7887 16.8233 30.959 16.9558C32.673 19.4623 34.8561 21.6772 36.963 23.8467C37.4182 24.3156 37.8108 24.8194 38.1336 25.3872C38.2281 25.553 38.3564 25.9514 38.4506 26.1383C38.6107 26.4545 38.8086 26.6418 38.9271 26.7328C39.5436 27.2067 40.1202 27.1157 40.5954 26.8225C40.7988 26.6975 41.201 26.4285 41.2964 25.7143C41.5114 24.1096 41.0115 22.5373 40.4014 20.9821C40.2211 20.522 40.0282 20.0653 39.862 19.6074C41.4413 20.5065 42.9753 21.5544 44.4392 22.6205C44.6001 22.7376 46.1876 23.7695 46.5663 23.8845C47.5141 24.174 48.0391 23.621 48.2465 23.3201C48.5626 22.8605 48.7235 22.1751 48.6485 21.3779C48.5506 20.3468 48.0494 19.027 47.8882 18.4852C46.8039 14.838 45.6305 11.0364 43.8341 7.67547C43.4574 6.96988 42.579 6.70356 41.8734 7.0803C41.1678 7.45704 40.9017 8.3362 41.2783 9.04109C42.9837 12.233 44.0805 15.849 45.1101 19.3113C45.134 19.3911 45.1669 19.4903 45.2054 19.6045Z" fill="black"/>
<path fill-rule="evenodd" clip-rule="evenodd" d="M47.4347 5.7008C48.6062 8.01432 49.7724 10.3053 50.7872 12.7356C51.0955 13.474 51.9446 13.8233 52.683 13.515C53.4207 13.2069 53.7701 12.3577 53.4617 11.6193C52.0309 8.1915 50.3075 5.03597 48.6799 1.7133C48.0516 0.428818 46.8149 0.967595 46.7397 1.00301C46.5739 1.08099 45.6797 1.54037 45.9496 2.66006C45.9659 2.72846 46.1414 3.19581 46.1995 3.37973C46.3318 3.80105 46.4361 4.21942 46.5301 4.65186C46.6382 5.15028 46.9905 5.53295 47.4347 5.7008Z" fill="black"/>
<path fill-rule="evenodd" clip-rule="evenodd" d="M54.9731 19.1727C54.9979 18.7021 54.792 18.2279 54.3834 17.9281C53.738 17.4553 52.8308 17.5954 52.358 18.2408C51.9212 18.8367 51.964 19.4069 52.2185 20.0495C52.5133 20.7931 53.3567 21.1574 54.1002 20.862C54.7801 20.5928 55.1425 19.864 54.9731 19.1727Z" fill="black"/>
<path fill-rule="evenodd" clip-rule="evenodd" d="M35.8867 53.3096C35.6622 53.0462 35.4829 52.8389 35.4417 52.7952C33.4836 50.7175 31.4237 48.7019 29.2682 46.8293C28.6642 46.3047 27.7486 46.3691 27.224 46.973C26.6993 47.5769 26.7637 48.4926 27.3676 49.0172C29.4503 50.8262 31.4403 52.7752 33.3329 54.7828C33.4773 54.9359 34.5471 56.3536 35.183 56.8936C35.7591 57.3822 36.3362 57.4562 36.6453 57.4197C37.1363 57.3617 37.8289 56.9922 38.2113 56.0297C38.7107 54.7735 38.969 51.709 39.0106 51.2008C39.0859 50.266 39.1031 49.3019 39.1079 48.3675C39.1168 46.595 38.9239 44.8456 38.6997 43.0912C38.5986 42.2974 37.8722 41.7362 37.0783 41.8373C36.2854 41.9389 35.7235 42.6656 35.8251 43.4585C36.0329 45.086 36.2183 46.7083 36.2099 48.3523C36.205 49.2147 36.1912 50.105 36.1218 50.9676C36.1004 51.2264 36.0328 52.2896 35.8867 53.3096Z" fill="black"/>
</g>
<defs>
<clipPath id="clip0_2_123">
<rect width="52.1664" height="52.1663" fill="white" transform="matrix(0.965151 -0.261693 0.261694 0.965151 0 13.6516)"/>
</clipPath>
</defs>
</svg>
