<svg width="48" height="48" viewBox="0 0 48 48" fill="none" xmlns="http://www.w3.org/2000/svg">
<path fill-rule="evenodd" clip-rule="evenodd" d="M21.3643 18.0338C16.9086 14.3712 13.2982 10.0095 10.5852 4.92774C10.0426 3.91557 8.77999 3.52947 7.75738 4.07208C6.74521 4.61469 6.35905 5.87732 6.90166 6.89993C9.88601 12.4617 13.8304 17.2408 18.7139 21.2582C19.6009 21.9886 20.926 21.8634 21.6565 20.9764C22.3869 20.0791 22.2512 18.7643 21.3643 18.0338Z" fill="black"/>
<path fill-rule="evenodd" clip-rule="evenodd" d="M18.9881 3.76952C19.2177 7.98518 19.4264 12.2008 19.6873 16.4165C19.7603 17.5643 20.7516 18.4408 21.8994 18.3678C23.0473 18.2947 23.9238 17.3034 23.8507 16.1556C23.5899 11.9504 23.3811 7.7452 23.1516 3.52954C23.089 2.38485 22.0977 1.5031 20.9498 1.5678C19.802 1.63249 18.9151 2.61857 18.9881 3.76952Z" fill="black"/>
<path fill-rule="evenodd" clip-rule="evenodd" d="M34.4796 4.62524C31.8083 8.65307 28.7823 12.3678 25.7353 16.1243C25.0049 17.0217 25.1405 18.3366 26.0379 19.0566C26.9352 19.787 28.2501 19.6513 28.9701 18.7539C32.1005 14.9035 35.2101 11.0739 37.9649 6.93129C38.6014 5.97129 38.33 4.67742 37.37 4.0409C36.4204 3.40437 35.1161 3.66524 34.4796 4.62524Z" fill="black"/>
<path fill-rule="evenodd" clip-rule="evenodd" d="M44.8273 19.5991C37.5856 19.9226 29.8952 19.933 22.6534 19.4739C21.5056 19.4113 20.5143 20.2774 20.4413 21.4356C20.3682 22.5835 21.2447 23.5748 22.3926 23.6478C29.7804 24.1069 37.6274 24.0965 45.0152 23.773C46.1631 23.7208 47.0604 22.74 47.0082 21.5922C46.956 20.4444 45.9752 19.5469 44.8273 19.5991Z" fill="black"/>
<path fill-rule="evenodd" clip-rule="evenodd" d="M18.7082 20.9242C23.1743 26.392 27.797 31.7555 31.9396 37.4738C32.6179 38.4025 33.9223 38.6111 34.8614 37.9329C35.7901 37.2546 35.9987 35.9502 35.3205 35.0215C31.1257 29.2407 26.4509 23.8146 21.9327 18.2842C21.2022 17.3972 19.8874 17.2616 19.0004 17.992C18.103 18.7225 17.9778 20.0372 18.7082 20.9242Z" fill="black"/>
<path fill-rule="evenodd" clip-rule="evenodd" d="M20.0608 22.5108C21.2295 28.2082 21.553 33.6551 21.6365 39.4256C21.6469 40.5734 22.5965 41.4916 23.7443 41.4812C24.9026 41.4603 25.8208 40.5212 25.7999 39.3629C25.7165 33.3212 25.3722 27.6342 24.1513 21.6655C23.9113 20.5386 22.8156 19.8081 21.6782 20.0481C20.5513 20.2777 19.8208 21.3838 20.0608 22.5108Z" fill="black"/>
<path fill-rule="evenodd" clip-rule="evenodd" d="M20.2492 22.0518C16.8683 28.8136 15.1257 36.3266 11.5048 42.9423C10.9518 43.944 11.3274 45.217 12.3396 45.7701C13.3517 46.3231 14.6144 45.9474 15.1675 44.9457C18.8092 38.2883 20.5726 30.7336 23.9848 23.9196C24.4961 22.8866 24.0787 21.6344 23.0561 21.1127C22.0231 20.6014 20.7709 21.0188 20.2492 22.0518Z" fill="black"/>
<path fill-rule="evenodd" clip-rule="evenodd" d="M22.1099 20.5173C15.3794 21.7069 8.65941 22.2495 1.88724 23.053C0.739414 23.1886 -0.0744988 24.2217 0.0611534 25.3695C0.196806 26.5174 1.22995 27.3313 2.37777 27.1956C9.22299 26.3922 16.0265 25.8287 22.8404 24.6287C23.9673 24.42 24.7291 23.3347 24.5308 22.2078C24.3221 21.0704 23.2472 20.3087 22.1099 20.5173Z" fill="black"/>
<path fill-rule="evenodd" clip-rule="evenodd" d="M26.7933 17.3458C25.4055 17.2832 24.0907 17.1892 22.7342 16.9909C21.5864 16.824 20.5324 17.617 20.3655 18.7544C20.1985 19.8918 20.9915 20.9562 22.1289 21.1231C23.6315 21.3423 25.082 21.4466 26.6054 21.5092C27.7533 21.5614 28.7341 20.6744 28.7758 19.5162C28.828 18.3683 27.9412 17.3979 26.7933 17.3458Z" fill="black"/>
</svg>
